<svg width="136" height="155" viewBox="0 0 136 155" fill="none" xmlns="http://www.w3.org/2000/svg">
<g filter="url(#filter0_d_13983_274851)">
<rect x="22" y="17.793" width="92" height="111.833" rx="23" fill="white"/>
<rect x="37.3359" y="33.125" width="61.3333" height="61.3333" rx="13.4167" fill="url(#paint0_linear_13983_274851)"/>
<g clip-path="url(#clip0_13983_274851)">
<path fill-rule="evenodd" clip-rule="evenodd" d="M69.9867 70.1946H61.4478C57.1736 70.1946 55.0267 70.1946 53.5031 68.7667C51.9795 67.3388 51.7109 65.2017 51.7109 61.2438C51.7109 57.2859 51.9795 55.1488 53.5031 53.7209C55.0361 52.293 57.1736 52.293 61.4478 52.293H69.9867C74.2608 52.293 76.4067 52.293 77.9313 53.7209C79.4736 55.168 79.7712 57.5351 79.7712 61.3971C79.7712 65.2592 79.4932 67.31 77.9313 68.7667C76.4067 70.1946 74.2608 70.1946 69.9867 70.1946ZM61.4478 54.2096C57.6818 54.2096 55.7839 54.2096 54.8068 55.12C53.8962 55.973 53.6182 57.4009 53.6182 61.2438C53.6182 65.0867 53.8962 66.5146 54.8068 67.3675C55.7839 68.278 57.6715 68.278 61.4384 68.278H69.9764C73.7432 68.278 75.6403 68.278 76.6182 67.3675C77.5569 66.4859 77.8442 65.0867 77.8442 61.3971C77.8442 57.7075 77.5186 55.973 76.6182 55.12C75.6403 54.2096 73.7526 54.2096 69.9867 54.2096H61.4478ZM56.9818 66.2942H56.4352C56.1095 66.2846 55.8129 66.1121 55.6397 65.8342C54.6627 64.205 54.7684 59.2409 55.3908 57.1709C55.5059 56.7876 55.8409 56.5192 56.2443 56.4905L56.8479 56.4521L57.4712 56.4097L57.4797 56.4092C57.8493 56.3832 58.1937 56.359 58.496 56.3467C59.0136 56.2988 59.4731 56.7301 59.4927 57.2667C59.5114 57.7938 59.109 58.2442 58.5728 58.2634C58.2995 58.2755 57.9888 58.2953 57.6556 58.3179L57.0585 58.3592C56.7038 60.1705 56.7235 63.0934 57.0772 64.3967C57.3936 64.3967 57.7389 64.3967 58.0356 64.3871H58.5147C59.0426 64.3871 59.4637 64.8088 59.4731 65.3359C59.4731 65.863 59.0519 66.2942 58.525 66.3038H58.0552C57.7099 66.3134 57.3075 66.323 56.9434 66.323L56.9818 66.2942ZM65.2231 75.0438H73.8003L73.8097 75.0342C78.0941 75.0342 80.2504 75.0342 81.7833 73.6063C83.3453 72.1496 83.6233 70.07 83.6233 66.2367C83.6233 65.5275 83.6429 64.8663 83.6616 64.2434C83.7384 61.4163 83.7964 59.1834 81.9172 57.9375C81.4764 57.6405 80.883 57.7651 80.5854 58.2059C80.2981 58.6467 80.4132 59.2409 80.854 59.538C81.803 60.1705 81.8123 61.5696 81.745 64.1955C81.7262 64.828 81.7066 65.5084 81.7066 66.2367C81.7066 69.9263 81.4193 71.3255 80.4703 72.2071C79.4932 73.1175 77.5859 73.1175 73.8003 73.1175H65.2231C61.4384 73.1175 59.5311 73.1175 58.5531 72.2071C58.3519 72.025 58.189 71.8142 58.0552 71.565C57.796 71.105 57.2214 70.9325 56.7515 71.1913C56.292 71.45 56.1189 72.0346 56.3781 72.4946C56.6177 72.9259 56.8957 73.29 57.2504 73.6159C58.7833 75.0438 60.9302 75.0438 65.2231 75.0438ZM65.7986 64.5309C64.0542 64.5309 62.6363 63.0838 62.6363 61.3109C62.6363 59.538 64.0542 58.0909 65.7986 58.0909C67.5422 58.0909 68.9609 59.538 68.9609 61.3109C68.9609 63.0838 67.5422 64.5309 65.7986 64.5309ZM65.7986 59.998C65.1182 59.998 64.553 60.5825 64.553 61.3013C64.553 62.02 65.1089 62.6046 65.7986 62.6046C66.4884 62.6046 67.0443 62.02 67.0443 61.3013C67.0443 60.5825 66.4884 59.998 65.7986 59.998ZM72.6988 66.2175C73.0432 66.2271 73.4456 66.2271 73.8097 66.2271L73.7816 66.208H74.3272C74.6539 66.1984 74.9505 66.0259 75.1227 65.748C76.1101 64.1284 75.995 59.1546 75.3726 57.0846C75.2575 56.7013 74.9215 56.433 74.5191 56.4042L73.9154 56.3659C73.3118 56.318 72.7372 56.2796 72.2674 56.2605C71.7498 56.2509 71.2894 56.6534 71.2707 57.1805C71.251 57.7075 71.6637 58.158 72.1906 58.1771C72.5631 58.1937 73.0058 58.2244 73.4775 58.2572L73.7049 58.273C74.0596 60.0842 74.0493 63.0071 73.6852 64.3105C73.3595 64.3105 73.0245 64.3009 72.7269 64.2913H72.2384C71.7115 64.2913 71.28 64.713 71.28 65.24C71.2707 65.7767 71.7021 66.208 72.229 66.2175H72.6988Z" fill="white"/>
</g>
<path d="M42.4433 115.874C41.715 115.874 41.071 115.732 40.5113 115.448C39.9517 115.164 39.5185 114.743 39.2118 114.183C38.9128 113.631 38.7902 112.968 38.8438 112.193C38.8898 111.457 39.1505 110.564 39.6258 109.514L40.7413 110.02C40.5343 110.488 40.3772 110.894 40.2698 111.239C40.1702 111.576 40.1203 111.921 40.1203 112.274C40.1203 112.91 40.3158 113.386 40.7068 113.7C41.1055 114.014 41.6843 114.172 42.4433 114.172C43.0643 114.172 43.6202 114.06 44.1108 113.838C44.6015 113.623 44.9542 113.351 45.1688 113.021C45.1765 112.998 44.935 112.926 44.4443 112.803L43.8348 112.63C43.2292 112.454 42.7998 112.243 42.5468 111.998C42.2938 111.753 42.1673 111.408 42.1673 110.963C42.1673 110.342 42.3245 109.748 42.6388 109.18C42.9532 108.613 43.3672 108.153 43.8808 107.8C44.3945 107.448 44.9388 107.271 45.5138 107.271C45.7438 107.271 45.9777 107.306 46.2153 107.375C46.453 107.436 46.6178 107.513 46.7098 107.605L46.2268 109.088C46.1502 109.058 46.039 109.031 45.8933 109.008C45.7477 108.985 45.6173 108.973 45.5023 108.973C45.188 108.973 44.8852 109.042 44.5938 109.18C44.3102 109.311 44.0687 109.487 43.8693 109.709C43.67 109.924 43.5358 110.158 43.4668 110.411C43.4592 110.442 43.4553 110.48 43.4553 110.526C43.4553 110.656 43.5435 110.771 43.7198 110.871C43.9038 110.963 44.245 111.066 44.7433 111.181C45.441 111.342 45.9125 111.546 46.1578 111.791C46.4108 112.029 46.5373 112.308 46.5373 112.63C46.5373 113.19 46.3572 113.719 45.9968 114.218C45.6365 114.716 45.142 115.115 44.5133 115.414C43.8923 115.72 43.2023 115.874 42.4433 115.874ZM46.8398 115.034C47.3458 114.827 47.8097 114.586 48.2313 114.31C48.653 114.041 48.9827 113.773 49.2203 113.504C49.4657 113.236 49.5883 113.006 49.5883 112.814C49.5883 112.5 49.3852 111.645 48.9788 110.25L48.9213 110.02L50.2093 109.514C50.3933 110.043 50.539 110.61 50.6463 111.216C50.7537 111.814 50.8073 112.347 50.8073 112.814C50.8073 113.566 50.5122 114.26 49.9218 114.896C49.3315 115.54 48.538 116.069 47.5413 116.483L46.8398 115.034ZM52.0119 113.056C52.0885 112.55 52.1269 111.768 52.1269 110.71C52.1269 109.652 52.0924 108.544 52.0234 107.386C51.962 106.221 51.8892 105.405 51.8049 104.937L53.2424 104.603C53.3114 105.048 53.3727 105.826 53.4264 106.938C53.48 108.05 53.5069 109.142 53.5069 110.215C53.5069 111.542 53.4609 112.538 53.3689 113.206L52.0119 113.056ZM60.7297 113.125C60.3924 113.125 60.0895 113.064 59.8212 112.941C59.5605 112.811 59.3229 112.619 59.1082 112.366C58.5485 112.91 57.8547 113.183 57.0267 113.183C56.0914 113.183 55.2135 112.876 54.3932 112.262L55.0142 111.055C55.2595 111.185 55.5279 111.304 55.8192 111.411C56.1105 111.511 56.4555 111.561 56.8542 111.561C57.4599 111.561 57.985 111.419 58.4297 111.135L56.8542 107.536L58.0387 106.892L59.6142 110.618C59.7369 110.925 59.8787 111.135 60.0397 111.25C60.2007 111.358 60.4307 111.411 60.7297 111.411H60.8677L60.9597 112.274L60.8677 113.125H60.7297ZM57.5557 104.005C57.7934 104.235 58.0272 104.469 58.2572 104.707L58.6137 105.063L57.5557 106.121L56.4862 105.063L57.5557 104.005ZM60.753 111.411H61.144C61.7957 111.411 62.3324 111.362 62.754 111.262C63.1757 111.162 63.4594 111.028 63.605 110.859C63.4977 110.146 62.7004 109.203 61.213 108.03L61.3625 106.535L65.6405 104.73L66.1005 106.098L62.777 107.513C63.2677 107.935 63.7392 108.448 64.1915 109.054C64.6439 109.66 64.87 110.261 64.87 110.859C64.87 110.99 64.8509 111.132 64.8125 111.285C64.6592 111.906 64.2567 112.37 63.605 112.676C62.9534 112.975 62.133 113.125 61.144 113.125H60.753V111.411ZM61.489 105.144L65.2265 103.614L65.422 104.166L61.42 105.845L61.489 105.144ZM71.9306 113.125C71.5549 113.125 71.2291 113.064 70.9531 112.941C70.6848 112.818 70.4586 112.627 70.2746 112.366C69.8146 112.504 69.3699 112.573 68.9406 112.573C68.2506 112.573 67.6833 112.408 67.2386 112.078C66.8016 111.741 66.5831 111.285 66.5831 110.71C66.5831 110.043 66.8284 109.479 67.3191 109.019C67.8098 108.559 68.4691 108.161 69.2971 107.823L69.2166 107.133L70.5506 106.846C70.7269 108.487 70.8496 109.568 70.9186 110.089C70.9646 110.472 71.0183 110.756 71.0796 110.94C71.1486 111.124 71.2444 111.25 71.3671 111.319C71.4974 111.381 71.6853 111.411 71.9306 111.411H72.1261L72.2181 112.274L72.1261 113.125H71.9306ZM67.8481 110.388C67.8251 110.549 67.9056 110.687 68.0896 110.802C68.2813 110.917 68.5343 110.974 68.8486 110.974C69.1016 110.974 69.3891 110.928 69.7111 110.836C69.6881 110.721 69.6613 110.549 69.6306 110.319L69.4926 109.318C69.0556 109.456 68.6761 109.629 68.3541 109.836C68.0321 110.035 67.8634 110.219 67.8481 110.388ZM71.9947 111.411H72.5467C73.3057 111.411 73.8424 111.346 74.1567 111.216C74.4711 111.086 74.6282 110.886 74.6282 110.618C74.6206 110.449 74.5324 110.127 74.3637 109.652C74.1951 109.169 74.0724 108.847 73.9957 108.686L75.2147 108.019C75.3681 108.341 75.5214 108.77 75.6747 109.307C75.8281 109.836 75.9047 110.3 75.9047 110.698C75.8971 111.48 75.6326 112.082 75.1112 112.504C74.5899 112.918 73.8194 113.125 72.7997 113.125H71.9947V111.411ZM74.1337 116.046L73.1677 115.08L74.1337 114.103L74.4557 114.425L75.1112 115.08L74.1337 116.046ZM72.1097 114.103L72.4317 114.425L73.0872 115.08L72.1097 116.046L71.1437 115.08L72.1097 114.103ZM79.5845 113.125C78.7411 113.125 78.1316 112.883 77.756 112.4C77.388 111.917 77.204 111.181 77.204 110.192C77.1963 109.249 77.1656 108.295 77.112 107.329C77.066 106.355 76.997 105.554 76.905 104.925L78.331 104.615C78.4076 105.175 78.469 105.934 78.515 106.892C78.561 107.843 78.584 108.724 78.584 109.537V109.974C78.5763 110.365 78.5955 110.66 78.6415 110.859C78.6875 111.059 78.7795 111.201 78.9175 111.285C79.0631 111.369 79.2855 111.411 79.5845 111.411H79.642L79.734 112.274L79.642 113.125H79.5845ZM79.5649 111.411H79.7719C80.3699 111.411 80.8606 111.051 81.2439 110.33C81.6272 109.617 81.9952 109.085 82.3479 108.732C82.7006 108.372 83.0954 108.191 83.5324 108.191C83.9464 108.191 84.3106 108.326 84.6249 108.594C84.9392 108.855 85.1769 109.196 85.3379 109.617C85.5066 110.031 85.5909 110.468 85.5909 110.928C85.5909 111.373 85.5066 111.787 85.3379 112.17C85.1692 112.546 84.9239 112.83 84.6019 113.021C84.4332 113.129 84.2262 113.183 83.9809 113.183C83.3906 113.183 82.6086 112.876 81.6349 112.262C81.1596 112.837 80.5309 113.125 79.7489 113.125H79.5304L79.5649 111.411ZM82.3709 110.905C82.7312 111.128 83.0571 111.304 83.3484 111.435C83.6397 111.557 83.8621 111.618 84.0154 111.618C84.0921 111.618 84.1457 111.607 84.1764 111.584C84.2531 111.53 84.3106 111.454 84.3489 111.354C84.3949 111.247 84.4179 111.124 84.4179 110.986C84.4179 110.679 84.3336 110.396 84.1649 110.135C83.9962 109.867 83.7739 109.732 83.4979 109.732C83.1529 109.732 82.7772 110.123 82.3709 110.905ZM89.6692 113.125C89.4238 113.125 89.1977 113.079 88.9907 112.987C88.9447 113.708 88.6303 114.371 88.0477 114.977C87.465 115.59 86.6945 116.092 85.7362 116.483L85.0347 115.034C85.5407 114.827 86.0045 114.586 86.4262 114.31C86.8478 114.041 87.1775 113.773 87.4152 113.504C87.6605 113.236 87.7832 113.006 87.7832 112.814C87.7832 112.5 87.58 111.645 87.1737 110.25L87.1162 110.02L88.4042 109.514C88.4885 109.752 88.5882 110.093 88.7032 110.537C88.8028 110.852 88.9255 111.078 89.0712 111.216C89.2245 111.346 89.4238 111.411 89.6692 111.411H89.7727L89.8647 112.274L89.7727 113.125H89.6692ZM96.077 113.125C95.7243 113.117 95.4177 113.029 95.157 112.86C94.904 112.692 94.7085 112.45 94.5705 112.136C94.1565 112.788 93.6467 113.117 93.041 113.125H92.9835C92.6538 113.125 92.3663 113.037 92.121 112.86C91.8757 112.684 91.7032 112.45 91.6035 112.159C91.3582 112.473 91.0745 112.715 90.7525 112.883C90.4382 113.044 90.1008 113.125 89.7405 113.125H89.706L89.614 112.274L89.706 111.411H89.7635C90.0012 111.411 90.235 111.362 90.465 111.262C90.695 111.155 90.8675 111.024 90.9825 110.871C91.1435 110.687 91.2662 110.48 91.3505 110.25C91.4348 110.02 91.5115 109.775 91.5805 109.514L92.7765 109.64C92.7688 109.679 92.7267 109.832 92.65 110.1C92.5733 110.361 92.535 110.599 92.535 110.813C92.535 111.212 92.696 111.411 93.018 111.411H93.0525C93.4435 111.411 93.7463 111.201 93.961 110.779C94.1067 110.488 94.237 110.039 94.352 109.433L95.5365 109.491C95.4522 109.997 95.41 110.357 95.41 110.572C95.41 111.132 95.6438 111.411 96.1115 111.411C96.3338 111.411 96.5102 111.346 96.6405 111.216C96.7708 111.086 96.836 110.917 96.836 110.71C96.836 110.503 96.7555 110.173 96.5945 109.721C96.4412 109.269 96.3108 108.924 96.2035 108.686L97.3765 108.042C97.5222 108.341 97.6755 108.77 97.8365 109.33C97.9975 109.882 98.078 110.365 98.078 110.779C98.078 111.201 97.9937 111.592 97.825 111.952C97.664 112.305 97.434 112.588 97.135 112.803C96.8437 113.018 96.5102 113.125 96.1345 113.125H96.1115H96.077Z" fill="#2E354D"/>
</g>
<defs>
<filter id="filter0_d_13983_274851" x="0.916666" y="0.542968" width="134.167" height="153.999" filterUnits="userSpaceOnUse" color-interpolation-filters="sRGB">
<feFlood flood-opacity="0" result="BackgroundImageFix"/>
<feColorMatrix in="SourceAlpha" type="matrix" values="0 0 0 0 0 0 0 0 0 0 0 0 0 0 0 0 0 0 127 0" result="hardAlpha"/>
<feOffset dy="3.83333"/>
<feGaussianBlur stdDeviation="10.5417"/>
<feComposite in2="hardAlpha" operator="out"/>
<feColorMatrix type="matrix" values="0 0 0 0 0.180392 0 0 0 0 0.207843 0 0 0 0 0.301961 0 0 0 0.08 0"/>
<feBlend mode="normal" in2="BackgroundImageFix" result="effect1_dropShadow_13983_274851"/>
<feBlend mode="normal" in="SourceGraphic" in2="effect1_dropShadow_13983_274851" result="shape"/>
</filter>
<linearGradient id="paint0_linear_13983_274851" x1="68.0026" y1="33.125" x2="68.0026" y2="94.4583" gradientUnits="userSpaceOnUse">
<stop stop-color="#1BABA4"/>
<stop offset="1" stop-color="#1BABA4" stop-opacity="0.8"/>
</linearGradient>
<clipPath id="clip0_13983_274851">
<rect width="38.3333" height="38.3333" fill="white" transform="translate(48.8359 44.625)"/>
</clipPath>
</defs>
</svg>
